<svg id="Layer_3" enable-background="new 0 0 64 64" height="512" viewBox="0 0 64 64" width="512" xmlns="http://www.w3.org/2000/svg"><g><path d="m16 25h46v24h-46z" fill="#5a8944"/><path d="m12 29h46v24h-46z" fill="#78b75b"/><path d="m12 29v21.331c2.562.435 5.24.669 8 .669 17.979 0 32.59-9.805 32.981-22z" fill="#96cc7f"/><path d="m50 33h-30c0 2.209-1.791 4-4 4v1h6v6h2v5h26c0-2.209 1.791-4 4-4v-8c-2.209 0-4-1.791-4-4z" fill="#96cc7f"/><path d="m50 33h-30c0 2.209-1.791 4-4 4v1h6v6h2v5h9.597c8.212-2.537 14.624-7.299 17.589-13.16-.732-.725-1.186-1.729-1.186-2.84z" fill="#abd699"/><circle cx="35" cy="41" fill="#ebf7fe" r="8"/><path d="m30 16v-9h-3l5-5 5 5h-3v9z" fill="#a0a8b2"/><path d="m11 21v-9h-3l5-5 5 5h-3v9z" fill="#a0a8b2"/><path d="m2 56h20v6h-20z" fill="#f5b95b"/><path d="m4 50h20v6h-20z" fill="#f7c77c"/><path d="m4 44h20v6h-20z" fill="#f5b95b"/><path d="m2 38h20v6h-20z" fill="#f7c77c"/><path d="m49 21v-9h-3l5-5 5 5h-3v9z" fill="#a0a8b2"/><g><path d="m62 24h-46c-.552 0-1 .448-1 1v3h-3c-.552 0-1 .448-1 1v8h-9c-.552 0-1 .448-1 1v6c0 .552.448 1 1 1h1v5 5h-1c-.552 0-1 .448-1 1v6c0 .552.448 1 1 1h20c.552 0 1-.448 1-1v-5h1c.552 0 1-.448 1-1v-2h33c.552 0 1-.448 1-1v-3h3c.552 0 1-.448 1-1v-24c0-.552-.448-1-1-1zm-59 19v-4h18v4zm33 4.92v-2.104c1.161-.414 2-1.514 2-2.816 0-1.654-1.346-3-3-3-.551 0-1-.449-1-1s.449-1 1-1h3v-2h-2v-1.92c3.387.488 6 3.401 6 6.92s-2.613 6.432-6 6.92zm-2-13.84v2.104c-1.161.414-2 1.514-2 2.816 0 1.654 1.346 3 3 3 .551 0 1 .449 1 1s-.449 1-1 1h-3v2h2v1.92c-3.387-.488-6-3.401-6-6.92s2.613-6.432 6-6.92zm10 6.92c0-2.826-1.312-5.349-3.356-7h8.456c.398 1.956 1.943 3.501 3.899 3.899v6.201c-1.956.398-3.501 1.943-3.899 3.899h-8.456c2.044-1.65 3.356-4.173 3.356-6.999zm-18 0c0 2.826 1.312 5.349 3.356 7h-4.356v-4c0-.552-.448-1-1-1h-1v-5c0-.552-.448-1-1-1h-3.004c.961-.722 1.655-1.781 1.904-3h8.456c-2.044 1.651-3.356 4.174-3.356 7zm-3 4v4h-18v-4zm-2 12v4h-18v-4zm-16-2v-4h18v4zm52-3h-32v-2h25c.552 0 1-.448 1-1 0-1.654 1.346-3 3-3 .552 0 1-.448 1-1v-8c0-.552-.448-1-1-1-1.654 0-3-1.346-3-3 0-.552-.448-1-1-1h-30c-.552 0-1 .448-1 1 0 1.654-1.346 3-3 3-.552 0-1 .448-1 1h-2v-7h44zm4-4h-2v-19c0-.552-.448-1-1-1h-41v-2h44z"/><path d="m27 8h2v8c0 .552.448 1 1 1h4c.552 0 1-.448 1-1v-8h2c.404 0 .769-.244.924-.617.155-.374.069-.804-.217-1.09l-5-5c-.391-.391-1.023-.391-1.414 0l-5 5c-.286.286-.372.716-.217 1.09.155.373.52.617.924.617zm5-4.586 2.586 2.586h-.586c-.552 0-1 .448-1 1v8h-2v-8c0-.552-.448-1-1-1h-.586z"/><path d="m46 13h2v8c0 .552.448 1 1 1h4c.552 0 1-.448 1-1v-8h2c.404 0 .769-.244.924-.617.155-.374.069-.804-.217-1.09l-5-5c-.391-.391-1.023-.391-1.414 0l-5 5c-.286.286-.372.716-.217 1.09.155.373.52.617.924.617zm5-4.586 2.586 2.586h-.586c-.552 0-1 .448-1 1v8h-2v-8c0-.552-.448-1-1-1h-.586z"/><path d="m8 13h2v8c0 .552.448 1 1 1h4c.552 0 1-.448 1-1v-8h2c.404 0 .769-.244.924-.617.155-.374.069-.804-.217-1.09l-5-5c-.391-.391-1.023-.391-1.414 0l-5 5c-.286.286-.372.716-.217 1.09.155.373.52.617.924.617zm5-4.586 2.586 2.586h-.586c-.552 0-1 .448-1 1v8h-2v-8c0-.552-.448-1-1-1h-.586z"/></g></g></svg>