<svg width="48" height="48" viewBox="0 0 48 48" fill="none" xmlns="http://www.w3.org/2000/svg">
<path d="M19.4062 24C19.4062 26.5371 21.4629 28.5938 24 28.5938C26.5371 28.5938 28.5938 26.5371 28.5938 24C28.5938 21.4629 26.5371 19.4062 24 19.4062C21.4629 19.4062 19.4062 21.4629 19.4062 24Z" fill="white"/>
<path d="M13.2568 15.8724C13.4777 15.274 13.83 14.7324 14.2877 14.2878C14.7323 13.8301 15.2736 13.4778 15.8723 13.257C16.3579 13.0684 17.0874 12.8439 18.431 12.7827C19.8845 12.7164 20.3203 12.7021 24 12.7021C27.6801 12.7021 28.1158 12.7161 29.569 12.7823C30.9126 12.8439 31.6425 13.0684 32.1277 13.257C32.7264 13.4778 33.2681 13.8301 33.7123 14.2878C34.17 14.7324 34.5223 15.2737 34.7435 15.8724C34.9321 16.358 35.1566 17.0879 35.2178 18.4315C35.2841 19.8846 35.2983 20.3204 35.2983 24.0005C35.2983 27.6802 35.2841 28.116 35.2178 29.5695C35.1566 30.9131 34.9321 31.6426 34.7435 32.1282C34.5223 32.7269 34.1704 33.2682 33.7126 33.7128C33.2681 34.1705 32.7268 34.5228 32.1281 34.7436C31.6425 34.9326 30.9126 35.1571 29.569 35.2183C28.1158 35.2845 27.6804 35.2985 24.0004 35.2985C20.3199 35.2985 19.8842 35.2845 18.4314 35.2183C17.0878 35.1571 16.3579 34.9326 15.8723 34.7436C14.6704 34.28 13.7205 33.3301 13.2568 32.1282C13.0682 31.6426 12.8438 30.9131 12.7822 29.5695C12.7159 28.116 12.702 27.6802 12.702 24.0005C12.702 20.3204 12.7159 19.8846 12.7822 18.4315C12.8434 17.0879 13.0679 16.358 13.2568 15.8724ZM24 31.0768C27.9086 31.0768 31.077 27.9087 31.077 24.0001C31.077 20.0916 27.9086 16.9235 24 16.9235C20.0918 16.9235 16.9233 20.0916 16.9233 24.0001C16.9233 27.9087 20.0918 31.0768 24 31.0768ZM16.6436 18.2975C17.5569 18.2975 18.2974 17.557 18.2974 16.6437C18.2974 15.7303 17.5569 14.9899 16.6436 14.9899C15.7302 14.9899 14.9897 15.7303 14.9897 16.6437C14.9901 17.557 15.7302 18.2975 16.6436 18.2975Z" fill="white"/>
<path d="M24 0C37.2528 0 48 10.7472 48 24C48 37.2528 37.2528 48 24 48C10.7472 48 0 37.2528 0 24C0 10.7472 10.7472 0 24 0ZM10.3019 29.6818C10.3685 31.1488 10.6018 32.1504 10.9424 33.0271C11.6583 34.8783 13.1217 36.3417 14.9729 37.0576C15.8492 37.3982 16.8512 37.6311 18.3179 37.6981C19.7875 37.7651 20.257 37.7812 23.9996 37.7812C27.7427 37.7812 28.2118 37.7651 29.6818 37.6981C31.1484 37.6311 32.1504 37.3982 33.0267 37.0576C33.9467 36.7115 34.7794 36.1692 35.4679 35.4679C36.1688 34.7798 36.7112 33.9467 37.0573 33.0271C37.3978 32.1508 37.6311 31.1488 37.6978 29.6821C37.7655 28.2122 37.7812 27.7427 37.7812 24C37.7812 20.2573 37.7655 19.7878 37.6981 18.3182C37.6315 16.8512 37.3986 15.8496 37.058 14.9729C36.7119 14.0533 36.1692 13.2202 35.4679 12.5321C34.7798 11.8308 33.9467 11.2885 33.0271 10.9424C32.1504 10.6018 31.1488 10.3689 29.6818 10.3019C28.2122 10.2349 27.7427 10.2188 24 10.2188C20.2573 10.2188 19.7878 10.2349 18.3182 10.3022C16.8512 10.3689 15.8496 10.6018 14.9729 10.942C14.0533 11.2881 13.2202 11.8308 12.5317 12.5321C11.8308 13.2206 11.2881 14.0533 10.9424 14.9729C10.6014 15.8496 10.3685 16.8512 10.3015 18.3182C10.2345 19.7878 10.2188 20.2573 10.2188 24C10.2188 27.7427 10.2345 28.2122 10.3019 29.6818Z" fill="white"/>
</svg>
