<svg xmlns="http://www.w3.org/2000/svg" viewBox="0 0 203.69 138"><defs><style>.cls-1{fill:#c6d4dc;}.cls-2{fill:#3f4040;}.cls-3{fill:#fff;}</style></defs><title>Asset 2</title><g id="Layer_2" data-name="Layer 2"><g id="Layer_1-2" data-name="Layer 1"><polygon class="cls-1" points="72.33 137.56 76.3 135.79 76.27 133.12 194.79 81.64 194.79 76.01 198.9 76.19 203.21 73.74 203.25 57.83 90.5 105.67 72.33 119.39 72.33 137.56"/><path class="cls-2" d="M72.33,138a.42.42,0,0,1-.24-.07.43.43,0,0,1-.2-.37V119.39a.41.41,0,0,1,.18-.35l18.17-13.72,112.84-47.9a.44.44,0,0,1,.61.41l0,15.91a.44.44,0,0,1-.23.38l-4.31,2.45a.46.46,0,0,1-.23.06l-3.65-.16v5.17a.44.44,0,0,1-.26.41L76.71,133.4l0,2.38a.46.46,0,0,1-.26.41l-4,1.78A.57.57,0,0,1,72.33,138Zm.44-18.39v17.27l3.08-1.38,0-2.38a.44.44,0,0,1,.26-.41L194.35,81.35V76a.43.43,0,0,1,.14-.32.41.41,0,0,1,.32-.12l4,.17,4-2.26,0-15L90.68,106.07Z"/><path class="cls-2" d="M132.15,105.38a4.55,4.55,0,1,1,4.54-4.54A4.55,4.55,0,0,1,132.15,105.38Zm0-8.21a3.67,3.67,0,1,0,3.66,3.67A3.68,3.68,0,0,0,132.15,97.17Z"/><path class="cls-2" d="M198.9,76.63a.44.44,0,0,1-.44-.44V60.08a.43.43,0,0,1,.44-.44.44.44,0,0,1,.44.44V76.19A.44.44,0,0,1,198.9,76.63Z"/><path class="cls-2" d="M94.72,121.28a1.86,1.86,0,0,1-1.86-1.86v-4.73A1.85,1.85,0,0,1,94,113L121,100.79a1.85,1.85,0,0,1,2.62,1.69v4.73a1.86,1.86,0,0,1-1.09,1.69h0L95.48,121.11A1.83,1.83,0,0,1,94.72,121.28Zm27.06-19.49a.71.71,0,0,0-.28.06L94.43,114.06a.7.7,0,0,0-.4.63v4.73a.69.69,0,0,0,1,.63l27.07-12.21a.7.7,0,0,0,.4-.63v-4.73a.67.67,0,0,0-.31-.58A.76.76,0,0,0,121.78,101.79Z"/><path class="cls-2" d="M142.23,100.79A1.81,1.81,0,0,1,140.41,99v-4.8a1.84,1.84,0,0,1,1.07-1.67l27.13-12.24a1.85,1.85,0,0,1,1.74.13,1.82,1.82,0,0,1,.83,1.53v4.81a1.81,1.81,0,0,1-1.07,1.66L143,100.63A1.78,1.78,0,0,1,142.23,100.79Zm27.14-19.52a.67.67,0,0,0-.28.06L142,93.57a.65.65,0,0,0-.38.6V99a.64.64,0,0,0,.3.55.63.63,0,0,0,.62,0l27.13-12.24h0a.66.66,0,0,0,.39-.6V81.92a.66.66,0,0,0-.3-.55A.64.64,0,0,0,169.37,81.27Z"/><path class="cls-2" d="M176.38,86.42a.57.57,0,0,1-.58-.58V72.75a.58.58,0,0,1,.38-.54l4.74-1.8a.58.58,0,0,1,.79.54V84a.59.59,0,0,1-.38.55l-4.74,1.8A.76.76,0,0,1,176.38,86.42ZM177,73.16V85l3.58-1.36V71.8Z"/><path class="cls-2" d="M183.91,83.48a.67.67,0,0,1-.34-.1.61.61,0,0,1-.25-.48V69.81a.59.59,0,0,1,.38-.55l4.74-1.79a.58.58,0,0,1,.79.54V81.1a.58.58,0,0,1-.37.54l-4.75,1.8A.48.48,0,0,1,183.91,83.48Zm.58-13.27V82.05l3.58-1.36V68.85Z"/><polygon class="cls-1" points="57.13 51.52 90.5 105.67 203.25 57.83 171.35 11.46 57.13 51.52"/><path class="cls-2" d="M90.5,106.11a.45.45,0,0,1-.37-.21L56.75,51.75a.42.42,0,0,1,0-.38A.45.45,0,0,1,57,51.1l114.23-40a.45.45,0,0,1,.51.17l31.89,46.35a.43.43,0,0,1,.06.38.44.44,0,0,1-.25.28L90.68,106.07A.39.39,0,0,1,90.5,106.11ZM57.79,51.76l32.89,53.35,111.9-47.48L171.18,12Z"/><path class="cls-2" d="M97.46,99.78a15.06,15.06,0,0,1-.31-30.11h.33a15,15,0,0,1,11.9,5.84,15.56,15.56,0,0,1-.17-1.92A15.06,15.06,0,0,1,123.94,58.2h.34A15,15,0,0,1,136.18,64a13.56,13.56,0,0,1-.17-1.91,15.06,15.06,0,0,1,14.73-15.38h.34A14.94,14.94,0,0,1,163,52.57a15.54,15.54,0,0,1-.16-1.92,15.08,15.08,0,0,1,14.73-15.38h.33a15.06,15.06,0,0,1,10.87,25.47A15.06,15.06,0,0,1,166,59.55a13.8,13.8,0,0,1,.16,1.91,15.06,15.06,0,0,1-14.73,15.39h-.33A15,15,0,0,1,139.16,71a15.56,15.56,0,0,1,.17,1.92A15.06,15.06,0,0,1,124.6,88.31h-.34a15,15,0,0,1-11.9-5.84,13.83,13.83,0,0,1,.17,1.92A15.06,15.06,0,0,1,97.8,99.78Zm0-29.57h-.32A14.51,14.51,0,1,0,112,84.41a14.69,14.69,0,0,0-.4-3.07.28.28,0,0,1,.5-.21,14.51,14.51,0,0,0,26.7-8.19,15.1,15.1,0,0,0-.4-3.06.28.28,0,0,1,.5-.22,14.42,14.42,0,0,0,12.18,6.64h.32a14.54,14.54,0,0,0,13.8-17.89.25.25,0,0,1,.16-.31.26.26,0,0,1,.33.1,14.46,14.46,0,0,0,12.19,6.64h.32a14.51,14.51,0,0,0-.31-29h-.32a14.54,14.54,0,0,0-13.8,17.89.26.26,0,0,1-.16.31.27.27,0,0,1-.33-.1,14.45,14.45,0,0,0-12.18-6.64h-.33A14.49,14.49,0,0,0,137,65.17a.28.28,0,0,1-.5.22,14.51,14.51,0,0,0-26.7,8.18,15.19,15.19,0,0,0,.4,3.07.28.28,0,0,1-.5.21A14.44,14.44,0,0,0,97.48,70.21Z"/><path class="cls-2" d="M109,84.47A11.49,11.49,0,1,1,97.22,73.24,11.5,11.5,0,0,1,109,84.47Z"/><path class="cls-2" d="M135.75,73A11.48,11.48,0,1,1,124,61.77,11.48,11.48,0,0,1,135.75,73Z"/><path class="cls-2" d="M162.55,61.54a11.49,11.49,0,1,1-11.73-11.23A11.49,11.49,0,0,1,162.55,61.54Z"/><path class="cls-2" d="M189.35,50.08a11.49,11.49,0,1,1-11.74-11.24A11.48,11.48,0,0,1,189.35,50.08Z"/><polygon class="cls-2" points="67.55 55.86 168.8 18.3 176.13 28.99 75.26 69.04 67.55 55.86"/><path class="cls-2" d="M72,75.79a.27.27,0,0,1-.25-.17.28.28,0,0,1,.14-.37l111.57-46a.28.28,0,0,1,.36.15.27.27,0,0,1-.15.36l-111.57,46A.19.19,0,0,1,72,75.79Z"/><path class="cls-2" d="M107.85,66.43a2.61,2.61,0,1,1-2.61-2.61A2.61,2.61,0,0,1,107.85,66.43Z"/><path class="cls-2" d="M118.3,90.19a2.62,2.62,0,1,1-2.61-2.62A2.61,2.61,0,0,1,118.3,90.19Z"/><path class="cls-2" d="M135.21,55.48a2.61,2.61,0,1,1-2.61-2.61A2.61,2.61,0,0,1,135.21,55.48Z"/><path class="cls-2" d="M145.41,79a2.61,2.61,0,1,1-2.61-2.61A2.61,2.61,0,0,1,145.41,79Z"/><path class="cls-2" d="M162.08,44.17a2.61,2.61,0,1,1-2.61-2.62A2.61,2.61,0,0,1,162.08,44.17Z"/><path class="cls-2" d="M172,67.42a2.61,2.61,0,1,1-2.61-2.61A2.61,2.61,0,0,1,172,67.42Z"/><path class="cls-3" d="M83.51,87.11a.35.35,0,0,1-.35-.28,15.56,15.56,0,0,1,3-10.84c2.5-3.33,6.19-5.23,11-5.63h0a.34.34,0,0,1,.34.32.35.35,0,0,1-.31.38c-4.57.38-8.1,2.19-10.48,5.36A14.69,14.69,0,0,0,83.85,86.7a.34.34,0,0,1-.28.4Z"/><path class="cls-3" d="M100.09,71.27H100a8,8,0,0,0-1.79-.21.35.35,0,0,1,0-.7,9.17,9.17,0,0,1,2,.24.35.35,0,0,1,.24.43A.34.34,0,0,1,100.09,71.27Z"/><path class="cls-3" d="M110.32,75.64a.36.36,0,0,1-.34-.28,15.55,15.55,0,0,1,3-10.84c2.5-3.34,6.19-5.23,11-5.64h0a.35.35,0,0,1,0,.69c-4.57.39-8.1,2.19-10.48,5.36a14.78,14.78,0,0,0-2.83,10.29.34.34,0,0,1-.27.41Z"/><path class="cls-3" d="M126.91,59.8h-.1a8.29,8.29,0,0,0-1.79-.22.35.35,0,0,1-.35-.34.35.35,0,0,1,.35-.35,8.53,8.53,0,0,1,2,.24.34.34,0,0,1,.24.42A.34.34,0,0,1,126.91,59.8Z"/><path class="cls-3" d="M137.14,64.16a.35.35,0,0,1-.34-.27,15.57,15.57,0,0,1,3-10.85c2.5-3.33,6.19-5.23,11-5.63h0a.33.33,0,0,1,.34.31.35.35,0,0,1-.31.38c-4.57.38-8.1,2.19-10.48,5.36a14.76,14.76,0,0,0-2.83,10.29.34.34,0,0,1-.27.41Z"/><path class="cls-3" d="M153.72,48.32h-.09a8,8,0,0,0-1.79-.21.35.35,0,0,1-.35-.35.35.35,0,0,1,.35-.34,8.88,8.88,0,0,1,2,.23.36.36,0,0,1,.24.43A.35.35,0,0,1,153.72,48.32Z"/><path class="cls-3" d="M164,52.69a.35.35,0,0,1-.34-.28,15.56,15.56,0,0,1,3-10.84c2.5-3.33,6.19-5.23,11-5.64a.33.33,0,0,1,.37.32.33.33,0,0,1-.31.37c-4.58.39-8.1,2.19-10.48,5.37a14.75,14.75,0,0,0-2.83,10.28.34.34,0,0,1-.27.41Z"/><path class="cls-3" d="M180.54,36.85h-.09a8,8,0,0,0-1.79-.21.36.36,0,0,1-.35-.35.35.35,0,0,1,.35-.35,9.17,9.17,0,0,1,2,.24.35.35,0,0,1,.24.43A.36.36,0,0,1,180.54,36.85Z"/><path class="cls-3" d="M67.16,50.16a.43.43,0,0,1-.41-.3A.44.44,0,0,1,67,49.3l102.38-36a.44.44,0,0,1,.29.83l-102.38,36Z"/><path class="cls-3" d="M60,52.69a.43.43,0,0,1-.42-.29.45.45,0,0,1,.27-.57l3.71-1.3a.45.45,0,0,1,.56.27.44.44,0,0,1-.27.56l-3.71,1.31Z"/><polygon class="cls-1" points="123.93 35.18 131.34 46.78 126.43 48.8 119.02 37.11 123.93 35.18"/><path class="cls-2" d="M126.43,49.24a.44.44,0,0,1-.37-.21l-7.42-11.68a.41.41,0,0,1,0-.37.44.44,0,0,1,.25-.28l4.92-1.93a.43.43,0,0,1,.53.17l7.42,11.61a.47.47,0,0,1,0,.37.44.44,0,0,1-.25.27l-4.91,2A.51.51,0,0,1,126.43,49.24Zm-6.76-11.91,6.93,10.92,4.09-1.67-6.94-10.86Z"/><polygon class="cls-1" points="152.31 24.49 159.33 35.48 154.67 37.39 147.65 26.32 152.31 24.49"/><path class="cls-2" d="M154.67,37.83a.46.46,0,0,1-.37-.21l-7-11.06a.44.44,0,0,1-.05-.37.45.45,0,0,1,.26-.28l4.66-1.83a.43.43,0,0,1,.53.17l7,11a.44.44,0,0,1,.05.37.44.44,0,0,1-.25.28l-4.66,1.9A.33.33,0,0,1,154.67,37.83Zm-6.36-11.29,6.54,10.3,3.82-1.57L152.13,25Z"/><polygon class="cls-1" points="95.85 45.81 103.27 57.42 98.35 59.43 90.94 47.75 95.85 45.81"/><path class="cls-2" d="M98.35,59.87a.43.43,0,0,1-.37-.2L90.56,48a.44.44,0,0,1,.22-.64l4.91-1.94a.45.45,0,0,1,.53.18l7.42,11.6a.41.41,0,0,1,0,.37.43.43,0,0,1-.25.28l-4.91,2A.51.51,0,0,1,98.35,59.87ZM91.6,48l6.93,10.92,4.08-1.67L95.68,46.36Z"/><path class="cls-1" d="M23.38,38.54,140.49.68a5,5,0,0,1,3.34.1l27.52,10.69L57.12,51.52Z"/><path class="cls-2" d="M57.12,52a.4.4,0,0,1-.15,0L23.22,39a.44.44,0,0,1,0-.83L140.36.26A5.45,5.45,0,0,1,144,.37l27.52,10.68a.45.45,0,0,1,.29.42.46.46,0,0,1-.3.41L57.27,51.94ZM24.7,38.58,57.13,51.05l113-39.61L143.67,1.19a4.53,4.53,0,0,0-3-.09Z"/><path class="cls-2" d="M55.71,45.54a17.62,17.62,0,0,1-7-1.22c-2.73-1.22-4.21-2.7-4.39-4.42-.28-2.5,2.33-4.46,2.44-4.55a.67.67,0,0,1,.12-.06L135.07,5.94c.42-.1,9.39-2.13,14.35,1.81,1.86,1.48,2.71,2.95,2.52,4.36-.28,2.1-2.76,3.19-2.87,3.23l-84,29A41,41,0,0,1,55.71,45.54ZM47.24,36.1c-.34.27-2.24,1.88-2,3.71.15,1.38,1.46,2.63,3.87,3.7,5.72,2.55,15.66,0,15.76,0l83.92-29h0s2.11-.93,2.32-2.53c.15-1.08-.6-2.27-2.2-3.55-4.63-3.68-13.47-1.68-13.56-1.66Z"/><path class="cls-2" d="M75.76,37.46a4.55,4.55,0,1,1,4.55-4.55A4.55,4.55,0,0,1,75.76,37.46Zm0-8.21a3.66,3.66,0,1,0,3.66,3.66A3.66,3.66,0,0,0,75.76,29.25Z"/><path class="cls-2" d="M93.55,31.55A4.55,4.55,0,1,1,98.09,27,4.55,4.55,0,0,1,93.55,31.55Zm0-8.21A3.66,3.66,0,1,0,97.21,27,3.67,3.67,0,0,0,93.55,23.34Z"/><path class="cls-2" d="M111.33,25.64a4.55,4.55,0,1,1,4.55-4.55A4.55,4.55,0,0,1,111.33,25.64Zm0-8.21A3.67,3.67,0,1,0,115,21.09,3.66,3.66,0,0,0,111.33,17.43Z"/><path class="cls-2" d="M129.12,19.73a4.55,4.55,0,1,1,4.55-4.54A4.55,4.55,0,0,1,129.12,19.73Zm0-8.21a3.67,3.67,0,1,0,3.66,3.67A3.67,3.67,0,0,0,129.12,11.52Z"/><path class="cls-1" d="M86.14,109,72.33,119.39v18.17L60,132l-.1-5.74L28.18,109.89l-9.77,3.23L9.2,109V89.6L.79,62.72a7.43,7.43,0,0,1,2.44-8L23.38,38.54l33.74,13L87.63,101A6,6,0,0,1,86.14,109Z"/><path class="cls-2" d="M72.33,138a.39.39,0,0,1-.18,0l-12.32-5.58a.46.46,0,0,1-.26-.39l-.09-5.47L28.14,110.36l-9.59,3.18a.44.44,0,0,1-.32,0L9,109.35a.44.44,0,0,1-.26-.4V89.67L.37,62.85A7.84,7.84,0,0,1,3,54.34L23.1,38.19a.42.42,0,0,1,.43-.06l33.75,13a.43.43,0,0,1,.22.18L88,100.78c.88,1.42,2.46,4.25,2.23,4.54-.12.79-2.5,3-3.84,4h0L72.77,119.61v18a.45.45,0,0,1-.2.37A.42.42,0,0,1,72.33,138Zm-11.88-6.31,11.44,5.19V119.39a.41.41,0,0,1,.18-.35l13.8-10.43a5.55,5.55,0,0,0,1.39-7.37L56.83,51.88,23.45,39,3.51,55a7,7,0,0,0-2.3,7.56L9.62,89.47a.3.3,0,0,1,0,.13v19.07l8.8,4,9.6-3.18a.45.45,0,0,1,.34,0l31.73,16.36a.44.44,0,0,1,.24.39Z"/><path class="cls-1" d="M49.71,101.25a7.07,7.07,0,1,1-7.06-7.07A7.06,7.06,0,0,1,49.71,101.25Z"/><path class="cls-2" d="M42.65,108.85a7.61,7.61,0,1,1,7.6-7.6A7.61,7.61,0,0,1,42.65,108.85Zm0-14.13a6.53,6.53,0,1,0,6.52,6.53A6.54,6.54,0,0,0,42.65,94.72Z"/><path class="cls-2" d="M42.65,105.37a4.13,4.13,0,1,1,4.12-4.12A4.13,4.13,0,0,1,42.65,105.37Zm0-7.71a3.59,3.59,0,1,0,3.58,3.59A3.59,3.59,0,0,0,42.65,97.66Z"/><path class="cls-2" d="M42.54,85.8a9.51,9.51,0,1,1,9.51-9.51A9.52,9.52,0,0,1,42.54,85.8Zm0-18.06a8.55,8.55,0,1,0,8.54,8.55A8.57,8.57,0,0,0,42.54,67.74Z"/><path class="cls-2" d="M48.3,76.29a5.77,5.77,0,1,1-5.76-5.76A5.76,5.76,0,0,1,48.3,76.29Z"/><path class="cls-2" d="M27.58,48.71a4,4,0,1,1-4-4A4,4,0,0,1,27.58,48.71Z"/><path class="cls-2" d="M55.94,57.61a4,4,0,1,1-4-4A4,4,0,0,1,55.94,57.61Z"/><path class="cls-2" d="M18.41,113.57a.45.45,0,0,1-.44-.45V86.88a.44.44,0,0,1,.22-.39L22.69,84c-1.66-1.41-6.4-6.31-4.76-15.39,1.32-7.3,4.19-9.28,6.73-11a8.41,8.41,0,0,0,3.55-3.78C30.32,48.71,29.28,41.1,29.27,41a.43.43,0,0,1,.37-.5.43.43,0,0,1,.5.37c.05.33,1.08,7.93-1.12,13.21a9.25,9.25,0,0,1-3.86,4.17c-2.39,1.65-5.11,3.53-6.36,10.46-1.87,10.33,4.86,14.89,4.93,14.93a.44.44,0,0,1,0,.76l-4.85,2.71v26A.45.45,0,0,1,18.41,113.57Z"/><path class="cls-2" d="M59.91,126.69a.44.44,0,0,1-.44-.44V84.7c0-4.84-8.21-18.18-12.63-22.59-4.74-4.74-.91-13.84-.75-14.23a.44.44,0,0,1,.58-.23.43.43,0,0,1,.23.58c0,.09-3.75,8.94.57,13.25C52.08,66.1,60.35,79.57,60.35,84.7v41.55A.44.44,0,0,1,59.91,126.69Z"/><path class="cls-2" d="M28.18,110.33a.44.44,0,0,1-.44-.44V69c0-3.45,2.3-6.6,4.34-9.38,1.47-2,2.85-3.91,2.85-5.34V43.15a.45.45,0,1,1,.89,0V54.27c0,1.72-1.41,3.64-3,5.86-2,2.67-4.17,5.7-4.17,8.86v40.9A.44.44,0,0,1,28.18,110.33Z"/><path class="cls-3" d="M28.14,42.19l-.16,0-4.1-1.61a.45.45,0,0,1-.25-.58.43.43,0,0,1,.57-.24l4.1,1.61a.44.44,0,0,1,.25.57A.42.42,0,0,1,28.14,42.19Z"/><path class="cls-3" d="M55.25,52.69a.45.45,0,0,1-.16,0l-7.64-3a.44.44,0,0,1,.32-.83l7.64,3a.44.44,0,0,1,.25.57A.44.44,0,0,1,55.25,52.69Z"/></g></g></svg>