<svg width="42" height="42" viewBox="0 0 42 42" fill="none" xmlns="http://www.w3.org/2000/svg">
<g clip-path="url(#clip0)">
<path d="M35.8465 6.14803C27.6443 -2.05173 14.3478 -2.04976 6.14803 6.15254C-2.05173 14.3548 -2.04976 27.6513 6.15254 35.8511C14.3548 44.0508 27.6513 44.0488 35.8511 35.8465C39.789 31.9073 42.0008 26.565 41.9995 20.995C41.9984 15.4259 39.7851 10.0854 35.8465 6.14803ZM31.8033 29.2523C31.8024 29.2532 31.8015 29.2542 31.8005 29.2551V29.2481L30.7365 30.3051C29.3604 31.6985 27.3563 32.2719 25.4515 31.8171C23.5323 31.3034 21.708 30.4857 20.0475 29.3951C18.5048 28.4092 17.0752 27.2566 15.7845 25.9581C14.5969 24.7792 13.53 23.4848 12.5995 22.0941C11.5816 20.5977 10.776 18.9675 10.2055 17.2501C9.55142 15.2324 10.0934 13.0185 11.6055 11.5311L12.8515 10.2851C13.1979 9.93714 13.7608 9.93591 14.1087 10.2823C14.1096 10.2832 14.1106 10.2841 14.1115 10.2851L18.0454 14.2191C18.3934 14.5655 18.3946 15.1284 18.0482 15.4763C18.0473 15.4772 18.0464 15.4781 18.0454 15.4791L15.7354 17.7891C15.0726 18.4447 14.9893 19.4865 15.5395 20.2391C16.3749 21.3857 17.2995 22.4647 18.3045 23.4661C19.425 24.5914 20.643 25.6151 21.9445 26.5252C22.6964 27.0497 23.7159 26.9612 24.3664 26.3152L26.5994 24.0472C26.9458 23.6992 27.5087 23.698 27.8566 24.0444C27.8575 24.0453 27.8584 24.0462 27.8594 24.0472L31.8004 27.9952C32.1485 28.3415 32.1497 28.9043 31.8033 29.2523Z" fill="white"/>
</g>
<defs>
<clipPath id="clip0">
<rect width="42" height="42" fill="white"/>
</clipPath>
</defs>
</svg>
