<svg width="197" height="156" viewBox="0 0 197 156" fill="none" xmlns="http://www.w3.org/2000/svg">
<g clip-path="url(#clip0)">
<path d="M191.166 36.8344H5.83325V137.888H191.166V36.8344Z" fill="#344E5D"/>
<path d="M191.167 138.734H5.89248C5.76979 138.744 5.64658 138.726 5.53148 138.682C5.41637 138.639 5.31214 138.571 5.22609 138.482C5.14003 138.394 5.07423 138.288 5.03327 138.172C4.99232 138.056 4.97721 137.932 4.98899 137.809V36.8344C4.98871 36.7181 5.01234 36.603 5.05842 36.4962C5.1045 36.3895 5.17204 36.2934 5.25681 36.214C5.34159 36.1345 5.44179 36.0735 5.55116 36.0346C5.66052 35.9957 5.77672 35.9798 5.89248 35.9879H191.167C191.278 35.9879 191.387 36.0098 191.49 36.0523C191.592 36.0949 191.686 36.1572 191.764 36.2358C191.842 36.3145 191.905 36.4078 191.947 36.5105C191.989 36.6132 192.011 36.7233 192.011 36.8344V137.809C192.022 137.927 192.009 138.045 191.971 138.157C191.934 138.269 191.873 138.372 191.794 138.459C191.714 138.547 191.617 138.616 191.509 138.663C191.401 138.711 191.285 138.735 191.167 138.734ZM6.65848 137.041H190.322V37.681H6.65848V137.041Z" fill="#3F4040"/>
<path d="M187.18 125.879C186.956 125.879 186.741 125.79 186.582 125.631C186.424 125.472 186.335 125.257 186.335 125.032V41.9137C186.316 41.793 186.324 41.6698 186.358 41.5525C186.391 41.4351 186.449 41.3264 186.529 41.2337C186.608 41.1411 186.706 41.0668 186.817 41.0158C186.928 40.9648 187.048 40.9384 187.17 40.9384C187.292 40.9384 187.412 40.9648 187.522 41.0158C187.633 41.0668 187.731 41.1411 187.811 41.2337C187.89 41.3264 187.948 41.4351 187.982 41.5525C188.015 41.6698 188.023 41.793 188.004 41.9137V125.032C188.007 125.143 187.988 125.252 187.947 125.355C187.907 125.457 187.847 125.551 187.77 125.63C187.693 125.709 187.601 125.771 187.5 125.814C187.398 125.857 187.29 125.879 187.18 125.879V125.879Z" fill="#3F4040"/>
<path d="M187.18 132.671C186.956 132.671 186.741 132.582 186.582 132.423C186.424 132.264 186.335 132.049 186.335 131.824V129.029C186.316 128.908 186.324 128.785 186.358 128.668C186.391 128.55 186.449 128.441 186.529 128.349C186.608 128.256 186.706 128.182 186.817 128.131C186.928 128.08 187.048 128.053 187.17 128.053C187.292 128.053 187.412 128.08 187.522 128.131C187.633 128.182 187.731 128.256 187.811 128.349C187.89 128.441 187.948 128.55 187.982 128.668C188.015 128.785 188.023 128.908 188.004 129.029V131.903C187.985 132.11 187.89 132.303 187.738 132.445C187.586 132.586 187.387 132.667 187.18 132.671V132.671Z" fill="#3F4040"/>
<path d="M8.11166 134.128C7.89102 134.128 7.67913 134.041 7.5213 133.887C7.36346 133.732 7.27222 133.522 7.26709 133.301V45.8117C7.26709 45.5872 7.35607 45.3719 7.51446 45.2131C7.67284 45.0543 7.88766 44.9651 8.11166 44.9651C8.33565 44.9651 8.55047 45.0543 8.70885 45.2131C8.86724 45.3719 8.95622 45.5872 8.95622 45.8117V133.301C8.95625 133.411 8.93428 133.52 8.8916 133.622C8.84892 133.723 8.7864 133.816 8.7077 133.893C8.62901 133.97 8.53574 134.03 8.43338 134.07C8.33101 134.111 8.22163 134.13 8.11166 134.128V134.128Z" fill="white"/>
<path d="M8.11166 42.7602C7.88766 42.7602 7.67284 42.671 7.51446 42.5122C7.35607 42.3535 7.26709 42.1382 7.26709 41.9137V39.1968C7.27222 38.9758 7.36346 38.7655 7.5213 38.6109C7.67913 38.4564 7.89102 38.3699 8.11166 38.37C8.22163 38.3674 8.33101 38.3868 8.43338 38.4272C8.53574 38.4676 8.62901 38.528 8.7077 38.6051C8.7864 38.6821 8.84892 38.7742 8.8916 38.8758C8.93428 38.9774 8.95625 39.0866 8.95622 39.1968V41.9137C8.95622 42.1382 8.86724 42.3535 8.70885 42.5122C8.55047 42.671 8.33565 42.7602 8.11166 42.7602V42.7602Z" fill="white"/>
<path d="M92.0578 54.9268L81.6284 84.9298H96.2807L83.8871 119.914L119.536 75.8344H101.211L110.658 54.9268H92.0578Z" fill="white"/>
<path d="M83.8869 120.76C83.7442 120.756 83.6039 120.722 83.4745 120.662C83.3019 120.563 83.1699 120.405 83.1016 120.218C83.0334 120.031 83.0333 119.825 83.1013 119.638L95.102 85.7764H81.6282C81.494 85.7748 81.3621 85.742 81.2428 85.6805C81.1234 85.619 81.02 85.5305 80.9408 85.422C80.8631 85.3117 80.8136 85.1842 80.7965 85.0503C80.7794 84.9165 80.7952 84.7805 80.8426 84.6542L91.272 54.6512C91.3285 54.4866 91.4342 54.3435 91.5748 54.2413C91.7154 54.1392 91.884 54.0829 92.0576 54.0802H110.658C110.797 54.0769 110.935 54.1118 111.056 54.1812C111.177 54.2506 111.277 54.3518 111.345 54.474C111.412 54.5979 111.447 54.7366 111.447 54.8776C111.447 55.0185 111.412 55.1572 111.345 55.2811L102.448 74.9682H119.477C119.635 74.9689 119.791 75.0133 119.926 75.0967C120.061 75.18 120.17 75.299 120.243 75.4407C120.311 75.5871 120.337 75.7503 120.316 75.9108C120.295 76.0713 120.229 76.2224 120.125 76.3463L84.5547 120.445C84.4745 120.545 84.3727 120.625 84.257 120.68C84.1413 120.734 84.0148 120.762 83.8869 120.76V120.76ZM82.8067 84.0833H96.2412C96.3753 84.0848 96.5073 84.1176 96.6266 84.1791C96.7459 84.2406 96.8493 84.3291 96.9286 84.4376C97.0051 84.5482 97.0555 84.6749 97.076 84.8079C97.0964 84.9409 97.0863 85.0769 97.0465 85.2054L86.4206 115.583L117.846 76.6613H101.21C101.069 76.6648 100.93 76.6321 100.805 76.5663C100.681 76.5005 100.575 76.4037 100.498 76.2853C100.421 76.1668 100.376 76.0306 100.366 75.8897C100.357 75.7487 100.384 75.6077 100.444 75.48L109.342 55.793H92.6468L82.8067 84.0833Z" fill="#3F4040"/>
<path d="M194.859 137.337H2.16064V155.153H194.859V137.337Z" fill="#344E5D"/>
<path d="M194.839 156H2.16048C1.93649 156 1.72167 155.911 1.56329 155.752C1.4049 155.593 1.31592 155.378 1.31592 155.153V137.435C1.31592 137.211 1.4049 136.995 1.56329 136.837C1.72167 136.678 1.93649 136.589 2.16048 136.589H194.839C195.063 136.589 195.278 136.678 195.437 136.837C195.595 136.995 195.684 137.211 195.684 137.435V155.153C195.684 155.378 195.595 155.593 195.437 155.752C195.278 155.911 195.063 156 194.839 156ZM2.98541 154.327H193.995V138.183H2.98541V154.327Z" fill="#3F4040"/>
<path d="M4.2621 151.315C4.03811 151.315 3.82329 151.225 3.6649 151.067C3.50652 150.908 3.41754 150.693 3.41754 150.468V145.212C3.39902 145.091 3.40675 144.968 3.44019 144.85C3.47363 144.733 3.532 144.624 3.61129 144.532C3.69057 144.439 3.78891 144.365 3.89955 144.314C4.01018 144.263 4.13051 144.236 4.25228 144.236C4.37405 144.236 4.49438 144.263 4.60502 144.314C4.71566 144.365 4.81399 144.439 4.89328 144.532C4.97256 144.624 5.03093 144.733 5.06437 144.85C5.09781 144.968 5.10554 145.091 5.08703 145.212V150.468C5.08965 150.578 5.07024 150.688 5.02996 150.791C4.98968 150.893 4.92933 150.987 4.85247 151.065C4.7756 151.144 4.68378 151.207 4.58239 151.25C4.481 151.293 4.37211 151.315 4.2621 151.315Z" fill="white"/>
<path d="M4.10482 142.79C3.99391 142.79 3.88409 142.768 3.78162 142.726C3.67915 142.683 3.58605 142.621 3.50762 142.542C3.4292 142.463 3.36699 142.37 3.32454 142.267C3.2821 142.165 3.26025 142.055 3.26025 141.943V139.305C3.26022 139.195 3.28219 139.086 3.32487 138.984C3.36755 138.883 3.43008 138.791 3.50877 138.714C3.58747 138.637 3.68074 138.576 3.7831 138.536C3.88546 138.495 3.99485 138.476 4.10482 138.479H190.518C190.639 138.46 190.762 138.468 190.879 138.501C190.996 138.535 191.104 138.593 191.197 138.673C191.289 138.752 191.363 138.851 191.414 138.962C191.465 139.073 191.491 139.193 191.491 139.315C191.491 139.437 191.465 139.558 191.414 139.669C191.363 139.78 191.289 139.878 191.197 139.958C191.104 140.037 190.996 140.096 190.879 140.129C190.762 140.163 190.639 140.17 190.518 140.152H4.94939V141.943C4.94939 142.055 4.92754 142.165 4.8851 142.267C4.84265 142.37 4.78044 142.463 4.70202 142.542C4.62359 142.621 4.53049 142.683 4.42802 142.726C4.32555 142.768 4.21573 142.79 4.10482 142.79Z" fill="white"/>
<path d="M173.647 0.846497H157.875V14.3912H173.647V0.846497Z" fill="#DF5A49"/>
<path d="M173.647 15.2181H157.934C157.717 15.2079 157.512 15.1143 157.362 14.9566C157.212 14.799 157.128 14.5894 157.129 14.3715V0.846542C157.127 0.638083 157.203 0.436432 157.34 0.280224C157.478 0.124015 157.668 0.0242352 157.875 0L173.588 0C173.812 0 174.027 0.089189 174.185 0.247946C174.343 0.406704 174.432 0.622025 174.432 0.846542V14.3715C174.433 14.5862 174.352 14.793 174.206 14.9502C174.06 15.1073 173.86 15.2031 173.647 15.2181ZM158.72 13.5447H172.842V1.73246H158.72V13.5447Z" fill="#3F4040"/>
<path d="M36.4734 0.846497H20.7017V14.3912H36.4734V0.846497Z" fill="#43B29D"/>
<path d="M36.4734 15.2181H20.7606C20.5366 15.2181 20.3218 15.1289 20.1634 14.9701C20.005 14.8114 19.916 14.596 19.916 14.3715V0.84653C19.9155 0.631881 19.9963 0.425048 20.1422 0.267884C20.2881 0.110721 20.488 0.0149628 20.7017 -1.2167e-05H36.4145C36.5303 -0.0081278 36.6465 0.00775683 36.7558 0.0466506C36.8652 0.0855444 36.9654 0.146613 37.0502 0.226045C37.135 0.305478 37.2025 0.40157 37.2486 0.508326C37.2947 0.615082 37.3183 0.730211 37.318 0.84653V14.3715C37.318 14.596 37.229 14.8114 37.0706 14.9701C36.9123 15.1289 36.6974 15.2181 36.4734 15.2181ZM21.6052 13.5447H35.7074V1.73245H21.6052V13.5447Z" fill="#3F4040"/>
<path d="M144.421 2.55927H52.5596V14.3715H144.421V2.55927Z" fill="#344E5D"/>
<path d="M144.421 15.2181H52.5595C52.4495 15.2181 52.3406 15.1961 52.2392 15.1533C52.1379 15.1105 52.046 15.0479 51.9692 14.969C51.8923 14.8901 51.832 14.7966 51.7917 14.694C51.7514 14.5914 51.732 14.4818 51.7346 14.3715V2.55932C51.732 2.44909 51.7514 2.33945 51.7917 2.23685C51.832 2.13425 51.8923 2.04075 51.9692 1.96188C52.046 1.883 52.1379 1.82033 52.2392 1.77755C52.3406 1.73477 52.4495 1.71275 52.5595 1.71278H144.421C144.538 1.70179 144.657 1.71553 144.768 1.75313C144.88 1.79072 144.983 1.85133 145.07 1.93107C145.156 2.0108 145.226 2.10788 145.273 2.21608C145.32 2.32428 145.344 2.4412 145.344 2.55932V14.3715C145.344 14.4897 145.32 14.6066 145.273 14.7148C145.226 14.823 145.156 14.9201 145.07 14.9998C144.983 15.0795 144.88 15.1401 144.768 15.1777C144.657 15.2153 144.538 15.2291 144.421 15.2181V15.2181ZM53.4041 13.5447H143.596V3.40586H53.4041V13.5447Z" fill="#3F4040"/>
<path d="M196.155 13.9581H0.844482V37.051H196.155V13.9581Z" fill="#344E5D"/>
<path d="M196.155 37.8778H0.844566C0.734594 37.8805 0.625209 37.861 0.522846 37.8206C0.420483 37.7803 0.327211 37.7198 0.248517 37.6427C0.169824 37.5657 0.107298 37.4736 0.0646184 37.372C0.0219392 37.2704 -3.11515e-05 37.1612 3.31509e-08 37.051V13.9384C-3.11515e-05 13.8282 0.0219392 13.719 0.0646184 13.6174C0.107298 13.5158 0.169824 13.4237 0.248517 13.3467C0.327211 13.2696 0.420483 13.2091 0.522846 13.1688C0.625209 13.1284 0.734594 13.1089 0.844566 13.1116H196.155C196.265 13.1089 196.375 13.1284 196.477 13.1688C196.58 13.2091 196.673 13.2696 196.751 13.3467C196.83 13.4237 196.893 13.5158 196.935 13.6174C196.978 13.719 197 13.8282 197 13.9384V37.051C197 37.1612 196.978 37.2704 196.935 37.372C196.893 37.4736 196.83 37.5657 196.751 37.6427C196.673 37.7198 196.58 37.7803 196.477 37.8206C196.375 37.861 196.265 37.8805 196.155 37.8778ZM1.70877 36.2044H195.311V14.785H1.68913L1.70877 36.2044Z" fill="#3F4040"/>
<path d="M2.7694 19.2933C2.55228 19.2832 2.34742 19.1895 2.19743 19.0318C2.04745 18.8742 1.96388 18.6646 1.96411 18.4467V15.7496C1.96411 15.5251 2.05309 15.3098 2.21148 15.151C2.36987 14.9923 2.58469 14.9031 2.80868 14.9031H189.399C189.623 14.9031 189.838 14.9923 189.996 15.151C190.154 15.3098 190.243 15.5251 190.243 15.7496C190.243 15.9741 190.154 16.1895 189.996 16.3482C189.838 16.507 189.623 16.5962 189.399 16.5962H3.61396V18.3877C3.61923 18.5031 3.60142 18.6183 3.56158 18.7267C3.52174 18.8351 3.46068 18.9344 3.38198 19.0188C3.30329 19.1032 3.20856 19.1709 3.10335 19.2181C2.99815 19.2652 2.88461 19.2908 2.7694 19.2933V19.2933Z" fill="white"/>
<path d="M54.4845 7.50073C54.2605 7.50073 54.0456 7.41155 53.8873 7.25279C53.7289 7.09403 53.6399 6.87871 53.6399 6.65419V4.56737C53.6399 4.34285 53.7289 4.12753 53.8873 3.96877C54.0456 3.81001 54.2605 3.72083 54.4845 3.72083H139.845C140.067 3.72584 140.279 3.81663 140.436 3.97432C140.594 4.132 140.684 4.34442 140.689 4.56737C140.689 4.67854 140.667 4.78862 140.625 4.89132C140.582 4.99403 140.52 5.08735 140.442 5.16596C140.363 5.24457 140.27 5.30693 140.168 5.34947C140.065 5.39201 139.955 5.41391 139.845 5.41391H55.388V6.65419C55.3913 6.77138 55.3697 6.88793 55.3247 6.99612C55.2796 7.1043 55.2121 7.20165 55.1267 7.28171C55.0412 7.36176 54.9398 7.42269 54.8291 7.46046C54.7183 7.49822 54.6009 7.51195 54.4845 7.50073V7.50073Z" fill="white"/>
<path d="M2.7694 31.893C2.55228 31.8829 2.34742 31.7892 2.19743 31.6315C2.04745 31.4739 1.96388 31.2643 1.96411 31.0464V21.9117C1.96411 21.6872 2.05309 21.4718 2.21148 21.3131C2.36987 21.1543 2.58468 21.0651 2.80868 21.0651C3.03267 21.0651 3.24749 21.1543 3.40588 21.3131C3.56426 21.4718 3.65324 21.6872 3.65324 21.9117V31.0464C3.65337 31.161 3.63029 31.2744 3.58541 31.3798C3.54053 31.4851 3.47479 31.5803 3.39215 31.6594C3.30952 31.7386 3.21172 31.8001 3.10467 31.8402C2.99763 31.8804 2.88357 31.8983 2.7694 31.893V31.893Z" fill="white"/>
</g>
<defs>
<clipPath id="clip0">
<rect width="197" height="156" fill="white"/>
</clipPath>
</defs>
</svg>
