<svg id="Capa_1" enable-background="new 0 0 512 512" height="512" viewBox="0 0 512 512" width="512" xmlns="http://www.w3.org/2000/svg"><g><path d="m421.665 48.911c9.15 0 16.568 7.417 16.568 16.567v422.454c0 9.15-7.418 16.568-16.568 16.568h-331.33c-9.15 0-16.568-7.418-16.568-16.568v-422.454c0-9.15 7.418-16.567 16.568-16.567z" fill="#b25e1e"/><path d="m421.665 48.911h-23c9.15 0 16.567 7.417 16.567 16.567v422.454c0 9.15-7.417 16.568-16.567 16.568h23c9.15 0 16.567-7.417 16.567-16.568v-422.454c0-9.15-7.417-16.567-16.567-16.567z" fill="#844d28"/><path d="m405.099 88.047v377.321c0 3.314-2.686 6-6 6h-286.199c-3.314 0-6-2.686-6-6v-377.321c0-3.314 2.686-6 6-6h286.199c3.314 0 6 2.687 6 6z" fill="#f2f6fc"/><path d="m399.099 82.047h-23c3.314 0 6 2.686 6 6v377.321c0 3.314-2.686 6-6 6h23c3.314 0 6-2.686 6-6v-377.321c0-3.313-2.686-6-6-6z" fill="#cdd2e1"/><path d="m256 162.078s-.001-.001-.001-.001c-16.174-16.174-42.397-16.174-58.571 0s-16.174 42.397 0 58.571c0 0 .001.001.001.001l54.329 54.329c2.343 2.343 6.142 2.343 8.485 0l54.329-54.329c16.174-16.174 16.174-42.397 0-58.571-16.174-16.175-42.397-16.175-58.572 0z" fill="#ff7045"/><path d="m314.572 162.077c-11.043-11.043-26.77-14.54-40.786-10.503 6.512 1.876 12.655 5.373 17.786 10.503 16.174 16.174 16.174 42.397 0 58.571l-47.071 47.072 7.257 7.258c2.343 2.343 6.142 2.343 8.485 0l54.329-54.329c16.174-16.174 16.174-42.398 0-58.572z" fill="#f44945"/><path d="m292.441 32.347c-2.506 0-4.7-1.576-5.622-3.906-4.857-12.266-16.825-20.941-30.818-20.941-13.994 0-25.961 8.675-30.818 20.941-.923 2.33-3.117 3.906-5.622 3.906h-32.108c-3.314 0-6 2.686-6 6v54.269c0 3.314 2.686 6 6 6h137.097c3.314 0 6-2.686 6-6v-54.269c0-3.314-2.686-6-6-6z" fill="#9ca1af"/><g><path d="m324.55 32.347h-23c3.314 0 6 2.686 6 6v54.269c0 3.314-2.686 6-6 6h23c3.314 0 6-2.686 6-6v-54.269c0-3.313-2.686-6-6-6z" fill="#717891"/></g></g><g><path d="m421.665 41.411h-83.614v-9.064c0-4.142-3.357-7.5-7.5-7.5h-37.095c-6.256-14.882-20.914-24.847-37.455-24.847s-31.199 9.965-37.455 24.847h-37.094c-4.143 0-7.5 3.358-7.5 7.5v9.064h-83.617c-13.271 0-24.067 10.796-24.067 24.067v42.988c0 4.142 3.357 7.5 7.5 7.5s7.5-3.358 7.5-7.5v-42.987c0-5 4.067-9.067 9.067-9.067h83.617v18.136h-67.052c-4.143 0-7.5 3.358-7.5 7.5v389.32c0 4.142 3.357 7.5 7.5 7.5h298.198c4.143 0 7.5-3.358 7.5-7.5v-389.321c0-4.142-3.357-7.5-7.5-7.5h-67.048v-18.136h83.614c5 0 9.067 4.067 9.067 9.067v422.454c0 5-4.067 9.067-9.067 9.067h-331.329c-5 0-9.067-4.067-9.067-9.067v-349.465c0-4.142-3.357-7.5-7.5-7.5s-7.5 3.358-7.5 7.5v349.466c0 13.271 10.797 24.067 24.067 24.067h331.33c13.27 0 24.067-10.796 24.067-24.067v-422.454c0-13.271-10.797-24.068-24.067-24.068zm-232.713-1.564h34.961c3.422 0 6.41-2.316 7.263-5.63 2.913-11.315 13.122-19.217 24.825-19.217s21.912 7.902 24.825 19.217c.853 3.313 3.841 5.63 7.263 5.63h34.962v51.269h-59.55v-9.066c0-4.142-3.357-7.5-7.5-7.5s-7.5 3.358-7.5 7.5v9.066h-59.549zm208.647 49.7v374.32h-283.199v-374.32h59.552v9.069c0 4.142 3.357 7.5 7.5 7.5h149.099c4.143 0 7.5-3.358 7.5-7.5v-9.069z"/><path d="m256 314.767h-33.133c-4.143 0-7.5 3.358-7.5 7.5s3.357 7.5 7.5 7.5h33.133c4.143 0 7.5-3.358 7.5-7.5s-3.357-7.5-7.5-7.5z"/><path d="m289.133 347.897h-66.267c-4.143 0-7.5 3.358-7.5 7.5s3.357 7.5 7.5 7.5h66.267c4.143 0 7.5-3.358 7.5-7.5s-3.358-7.5-7.5-7.5z"/><path d="m306.482 355.399c0 4.142 3.357 7.5 7.5 7.5h24.852c4.143 0 7.5-3.358 7.5-7.5s-3.357-7.5-7.5-7.5h-24.852c-4.142 0-7.5 3.358-7.5 7.5z"/><path d="m192.196 226.022 58.501 58.502c1.407 1.407 3.314 2.197 5.304 2.197 1.989 0 3.896-.79 5.304-2.197l58.571-58.572c19.071-19.073 19.071-50.105 0-69.178-9.24-9.239-21.524-14.328-34.59-14.328-10.703 0-20.88 3.414-29.29 9.727-19.143-14.325-46.479-12.793-63.872 4.599-19.071 19.072-19.071 50.106 0 69.178.024.025.048.049.072.072zm10.534-58.642c13.224-13.224 34.741-13.224 47.965-.001.232.232.48.449.74.648 1.303 1 2.905 1.55 4.566 1.55 1.989 0 3.896-.79 5.304-2.197 6.405-6.406 14.923-9.934 23.981-9.934 9.06 0 17.576 3.528 23.982 9.934 13.225 13.224 13.224 34.741 0 47.965l-53.268 53.269-53.268-53.269c-.021-.021-.044-.043-.065-.064-13.16-13.229-13.139-34.698.063-47.901z"/><path d="m189.733 314.767h-33.133c-4.143 0-7.5 3.358-7.5 7.5v33.133c0 4.142 3.357 7.5 7.5 7.5h33.134c4.143 0 7.5-3.358 7.5-7.5v-33.133c-.001-4.142-3.358-7.5-7.501-7.5zm-7.5 33.133h-18.133v-18.133h18.134v18.133z"/><path d="m222.867 396.034h33.133c4.143 0 7.5-3.358 7.5-7.5s-3.357-7.5-7.5-7.5h-33.133c-4.143 0-7.5 3.358-7.5 7.5s3.358 7.5 7.5 7.5z"/><path d="m289.133 414.164h-66.267c-4.143 0-7.5 3.358-7.5 7.5s3.357 7.5 7.5 7.5h66.267c4.143 0 7.5-3.358 7.5-7.5s-3.358-7.5-7.5-7.5z"/><path d="m338.834 414.166h-24.852c-4.143 0-7.5 3.358-7.5 7.5s3.357 7.5 7.5 7.5h24.852c4.143 0 7.5-3.358 7.5-7.5s-3.357-7.5-7.5-7.5z"/><path d="m189.733 381.033h-33.133c-4.143 0-7.5 3.358-7.5 7.5v33.133c0 4.142 3.357 7.5 7.5 7.5h33.134c4.143 0 7.5-3.358 7.5-7.5v-33.133c-.001-4.142-3.358-7.5-7.501-7.5zm-7.5 33.134h-18.133v-18.133h18.134v18.133z"/></g></svg>